<svg xmlns="http://www.w3.org/2000/svg" width="32" height="25.927" viewBox="0 0 32 25.927">
  <path id="gplus_web_ico_none_01" d="M22.178,27.468h4.938V43.534H22.178Zm-10.6,8.91V34.239a.791.791,0,1,1,1.572,0v2.139A.79.79,0,1,1,11.576,36.379Zm.628,2.334h.314a2.293,2.293,0,0,0,2.2-2.042V33.9a2.135,2.135,0,0,0-.68-1.364C12.522,31.127,10,32.221,10,34v2.674a2.293,2.293,0,0,0,2.2,2.042ZM-.01,20.106V20.1A.883.883,0,0,1,.8,19.35H7.927a.9.9,0,0,1,.748.524c.138.253.266.572.394.852.2.442,2.274,4.768,2.295,5h9.25c.019-.207,1.417-3.124,1.542-3.384l1.171-2.51a.879.879,0,0,1,.726-.487h7.125a.882.882,0,0,1,.813.755,11.524,11.524,0,0,1-1.134,2.776L29.7,25.344c-.811,1.608-.645,1.325-.645,3V42.609c0,1.006.321,2.669-.937,2.669H3.866c-1.251,0-.937-1.654-.937-2.727V28.283a4.993,4.993,0,0,0-.08-1.723L1.107,22.84A11.164,11.164,0,0,1-.01,20.11Zm4.874,7.362H20.239V43.534H4.864V27.468Zm22.562-1.74h-4.75c.079-.316,2.035-4.285,2.126-4.64h4.813c-.55.965-1.608,3.623-2.187,4.64ZM2.363,21.088H7.176l1.59,3.456c.092.207.167.364.265.567a4.217,4.217,0,0,1,.271.618H4.552c-.2-.345-.357-.739-.541-1.122-.2-.415-.345-.763-.543-1.178l-1.1-2.339Z" transform="translate(0.01 -19.35)" fill="#d9e4ea" fill-rule="evenodd"/>
</svg>
