<svg xmlns="http://www.w3.org/2000/svg" width="32" height="19.448" viewBox="0 0 32 19.448">
  <path id="gplus_web_ico_fastdelivery_01" d="M248.766,29.365a1.006,1.006,0,1,1,2-.2,1.115,1.115,0,0,1-.294.978,1,1,0,0,1-1.706-.773ZM223.14,17.241v-.271a1.08,1.08,0,0,1,1.188-.948H227.7V13.969a.959.959,0,0,1,.813-.89h18.375a1.846,1.846,0,0,1,1.436.96l1.752,4.239c.061.149.121.27.178.422.261.71.239.6.884.881.577.253,1.933.85,2.349,1.122a4.036,4.036,0,0,1,1.649,3.121v4.721a1.069,1.069,0,0,1-.355.705c-.388.372-1.414.253-2.081.253a3.21,3.21,0,0,1-.859,2.071,2.551,2.551,0,0,1-2.266.941,3.032,3.032,0,0,1-2.687-3.01h-11.25a2.864,2.864,0,0,1-4.986,2.037,3.258,3.258,0,0,1-.828-2.037h-1a1.046,1.046,0,0,1-1.125-.958V26.356c-1.132,0-2.563.3-2.563-1.026s1.5-1.094,2.563-1.094V22.252c-1.132,0-2.563.3-2.563-1.026s1.5-1.094,2.563-1.094V18.147h-3.625a.955.955,0,0,1-.937-.9Zm9.626,13.219a1.081,1.081,0,0,1-1-.958V29.16a.977.977,0,0,1,1.694-.623,1.183,1.183,0,0,1-.258,1.784,2.1,2.1,0,0,1-.437.138Zm-3.188-15.327h13.376v4.928c0,1.431,1.612,1.094,2.5,1.094,1.187,0,2.375.005,3.563,0a6.582,6.582,0,0,1,2.652.929,2.363,2.363,0,0,1,1.115.695,2.018,2.018,0,0,1,.483,1.456v3.147c-2.044,0-.8-.061-2-.82a2.773,2.773,0,0,0-2.979.02,2.875,2.875,0,0,0-.473.372c-.3.289-.2.429-.422.429H235.143c-.186,0-.121-.053-.217-.172a2.75,2.75,0,0,0-3.7-.621,2.048,2.048,0,0,0-.447.4c-.434.487-.21.394-1.2.394V22.25c1.2,0,2.314.263,2.314-1.163,0-1.137-1.591-.958-2.314-.958v-5Zm15.314,0c2.182,0,1.716-.256,2.187.891.138.338.246.649.4,1a18.823,18.823,0,0,1,.792,2.008h-3.376v-3.9Z" transform="translate(-223.14 -13.08)" fill="#2dc08d" fill-rule="evenodd"/>
</svg>
