<svg xmlns="http://www.w3.org/2000/svg" width="24" height="24.001" viewBox="0 0 24 24.001">
  <path id="gplus_web_ico_bundle_01" d="M902.717,22.9h2.3v9.442h-2.3Zm-14.156-11.17v9.392h7.968V11.682C893.852,11.682,891.193,11.732,888.561,11.732Zm-1.444-.889a.781.781,0,0,1,.6-.826V10.01h12.789v.006h.472a.76.76,0,0,1,.7.834V21.18h4.031a.76.76,0,0,1,.7.834V33.178c0,.428-.27.831-.606.834H883.027a.76.76,0,0,1-.607-.722V22.014a.748.748,0,0,1,.7-.834h3.985c0-3.443.009-6.907.009-10.337Zm13.163.9v9.386h-2.3V11.684c.8,0,1.478.056,2.3.056ZM893.3,22.9h7.968v9.442H893.3Zm-9.469,0h8.016v9.442h-8.016Z" transform="translate(-882.42 -10.01)" fill="#d7172f" fill-rule="evenodd"/>
</svg>
