<svg xmlns="http://www.w3.org/2000/svg" width="32" height="32.005" viewBox="0 0 32 32.005">
  <path id="gplus_web_ico_freedelivery_01" d="M248.766,29.365a1.006,1.006,0,1,1,2-.2,1.115,1.115,0,0,1-.294.978,1,1,0,0,1-1.706-.773ZM226.452,1.036V8.564c0,.608,1.687.809,1.687-.137V5.553h1.374c1.053,0,.768-1.438.312-1.438h-1.687V2.132h2.812c.577,0,.577-1.574,0-1.574h-3.813c-.3,0-.688.188-.688.48Zm13.813.068V8.5c0,.487.5.616.937.616.729,0,3.563.14,3.859-.155.36-.359.239-1.487-.234-1.487h-2.875V5.553c1.265,0,2.063.215,2.063-.753,0-.927-.533-.685-2.063-.685V2.132h2.812c.69,0,.69-1.574,0-1.574h-3.937a.555.555,0,0,0-.562.546Zm6.751.2V8.425c0,.565.536.685,1.062.685h3.251c1.084,0,.893-1.643.188-1.643H248.7V5.552c1.113,0,2.126.232,2.126-.753a.983.983,0,0,0-.186-.55c-.353-.4-1.94.176-1.94-.34,0-2.095-.174-1.783.813-1.779l2.121,0c.671-.128.5-1.569,0-1.569h-4c-.379,0-.625.273-.625.753ZM235.952,4.251H234.7V2.13c1.106,0,1.938-.138,1.938,1.094C236.64,3.776,236.442,4.251,235.952,4.251Zm-3-2.942v6.98a.663.663,0,0,0,.246.62c.309.213,1.5.452,1.5-.69V5.687c.744,0,.6-.075.874.548l.937,1.984c.188.413.34,1,.917.932.4-.05.96-.49.96-.932a1.923,1.923,0,0,0-.277-.724l-.7-1.357a4.73,4.73,0,0,1-.34-.724c1.052-.61,1.25-1.263,1.25-2.6a2.373,2.373,0,0,0-.671-1.66c-.869-.845-2.882-.6-4.267-.6a.452.452,0,0,0-.333.251,1.153,1.153,0,0,0-.1.5ZM223.14,17.241v-.271a1.08,1.08,0,0,1,1.188-.948H227.7V13.969a.959.959,0,0,1,.813-.89h18.375a1.846,1.846,0,0,1,1.436.96l1.752,4.239c.061.149.121.27.178.422.261.71.239.6.884.881.577.253,1.933.85,2.349,1.122a4.036,4.036,0,0,1,1.649,3.121v4.721a1.069,1.069,0,0,1-.355.705c-.388.372-1.414.253-2.081.253a3.21,3.21,0,0,1-.859,2.071,2.551,2.551,0,0,1-2.266.941,3.032,3.032,0,0,1-2.687-3.01h-11.25a2.864,2.864,0,0,1-4.986,2.037,3.258,3.258,0,0,1-.828-2.037h-1a1.046,1.046,0,0,1-1.125-.958V26.356c-1.132,0-2.563.3-2.563-1.026s1.5-1.094,2.563-1.094V22.252c-1.132,0-2.563.3-2.563-1.026s1.5-1.094,2.563-1.094V18.147h-3.625a.955.955,0,0,1-.937-.9Zm9.626,13.219a1.081,1.081,0,0,1-1-.958V29.16a.977.977,0,0,1,1.694-.623,1.183,1.183,0,0,1-.258,1.784,2.1,2.1,0,0,1-.437.138Zm-3.188-15.327h13.376v4.928c0,1.431,1.612,1.094,2.5,1.094,1.187,0,2.375.005,3.563,0a6.582,6.582,0,0,1,2.652.929,2.363,2.363,0,0,1,1.115.695,2.018,2.018,0,0,1,.483,1.456v3.147c-2.044,0-.8-.061-2-.82a2.773,2.773,0,0,0-2.979.02,2.875,2.875,0,0,0-.473.372c-.3.289-.2.429-.422.429H235.143c-.186,0-.121-.053-.217-.172a2.75,2.75,0,0,0-3.7-.621,2.048,2.048,0,0,0-.447.4c-.434.487-.21.394-1.2.394V22.25c1.2,0,2.314.263,2.314-1.163,0-1.137-1.591-.958-2.314-.958v-5Zm15.314,0c2.182,0,1.716-.256,2.187.891.138.338.246.649.4,1a18.823,18.823,0,0,1,.792,2.008h-3.376v-3.9Z" transform="translate(-223.14 -0.522)" fill="#2dc08d" fill-rule="evenodd"/>
</svg>
