<svg xmlns="http://www.w3.org/2000/svg" width="24" height="24" viewBox="0 0 24 24">
  <path id="gplus_web_ico_gift_01" d="M682.432,11.122,680.4,12.584c-1.111.8-.1,2.16,1.015,1.361l2.032-1.462C684.545,11.694,683.529,10.333,682.432,11.122Zm-6.767-.019,2.032,1.462c1.111.8.1,2.16-1.015,1.361l-2.032-1.462C673.552,11.675,674.568,10.314,675.665,11.1Zm-2.624-1.05-.2.271a2.514,2.514,0,0,0,.519,3.3l.818.588H667.94c-1.146,0-.859,1.6-.859,2.643V30.5c0,1.04-.288,2.643.859,2.643h22.216c1.154,0,.859-1.611.859-2.587V16.8c0-.976.294-2.587-.859-2.587h-6.206l.79-.569a2.513,2.513,0,0,0,.519-3.3l-.2-.273a2.627,2.627,0,0,0-3.361-.51l-2.54,1.827c-.032.023-.063.046-.094.07-.038-.031-.077-.061-.116-.091L676.4,9.542a2.627,2.627,0,0,0-3.361.51Zm16.2,5.847V31.46h-9.3V15.9h.588a3.133,3.133,0,0,0,.425,0Zm-11.077,0h-9.306V31.46h9.306V15.9Z" transform="translate(-667.049 -9.147)" fill="#d7172f" fill-rule="evenodd"/>
</svg>
