<svg id="gplus_web_signe_insta_01" xmlns="http://www.w3.org/2000/svg" width="48" height="48" viewBox="0 0 48 48">
  <rect id="container" width="48" height="48" fill="none"/>
  <path id="gplus_web_signe_insta_01-2" data-name="gplus_web_signe_insta_01" d="M3.462,48A3.462,3.462,0,0,1,0,44.538V3.462A3.462,3.462,0,0,1,3.462,0H44.538A3.462,3.462,0,0,1,48,3.462V44.538A3.462,3.462,0,0,1,44.538,48ZM18.318,10.3a10.123,10.123,0,0,0-3.345.64,7.052,7.052,0,0,0-4.031,4.031,10.113,10.113,0,0,0-.64,3.345c-.067,1.47-.083,1.939-.083,5.682s.016,4.212.084,5.682a10.107,10.107,0,0,0,.64,3.345,7.047,7.047,0,0,0,4.031,4.031,10.118,10.118,0,0,0,3.345.641c1.47.067,1.939.083,5.682.083s4.212-.016,5.682-.083a10.118,10.118,0,0,0,3.345-.641,7.047,7.047,0,0,0,4.031-4.031,10.109,10.109,0,0,0,.641-3.345c.067-1.47.083-1.939.083-5.682s-.016-4.212-.083-5.682a10.108,10.108,0,0,0-.641-3.345,7.048,7.048,0,0,0-4.031-4.031,10.123,10.123,0,0,0-3.345-.64c-1.47-.067-1.939-.084-5.682-.084S19.788,10.235,18.318,10.3Zm.113,24.916a7.615,7.615,0,0,1-2.559-.475,4.564,4.564,0,0,1-2.615-2.615,7.623,7.623,0,0,1-.474-2.559C12.716,28.116,12.7,27.68,12.7,24s.014-4.116.081-5.569a7.627,7.627,0,0,1,.474-2.559,4.566,4.566,0,0,1,2.616-2.615,7.63,7.63,0,0,1,2.559-.475c1.453-.066,1.889-.08,5.569-.08s4.115.014,5.569.08a7.626,7.626,0,0,1,2.559.474,4.564,4.564,0,0,1,2.615,2.615,7.618,7.618,0,0,1,.475,2.559c.066,1.453.08,1.889.08,5.569s-.014,4.115-.08,5.569a7.632,7.632,0,0,1-.475,2.559,4.564,4.564,0,0,1-2.615,2.615,7.616,7.616,0,0,1-2.559.475c-1.453.066-1.889.08-5.569.08S19.884,35.284,18.431,35.218ZM16.923,24A7.077,7.077,0,1,0,24,16.923,7.077,7.077,0,0,0,16.923,24ZM29.7,16.644a1.654,1.654,0,1,0,1.654-1.654A1.654,1.654,0,0,0,29.7,16.644ZM19.406,24A4.594,4.594,0,1,1,24,28.594,4.594,4.594,0,0,1,19.406,24Z" fill="#c32ba4"/>
</svg>
