<svg xmlns="http://www.w3.org/2000/svg" width="48.006" height="48.006" viewBox="0 0 48.006 48.006">
  <g id="gplus_web_signe_telegram_01" transform="translate(0.002 0.002)">
    <rect id="container" width="48" height="48" transform="translate(0.002 0.002)" fill="none"/>
    <path id="gplus_web_signe_telegram_01-2" data-name="gplus_web_signe_telegram_01" d="M20030,18212h-42a3.007,3.007,0,0,1-3-3v-42a3.007,3.007,0,0,1,3-3h42a3.007,3.007,0,0,1,3,3v42A3.007,3.007,0,0,1,20030,18212Zm-21.453-14.363v0l8.275,6.07a1.692,1.692,0,0,0,1.016.338,1.741,1.741,0,0,0,1.7-1.373l5.477-26.205a1.624,1.624,0,0,0-.33-1.375,1.656,1.656,0,0,0-1.281-.615,1.674,1.674,0,0,0-.605.115l-32.1,12.51a1.169,1.169,0,0,0,.09,2.211l8.16,2.408,3.041,9.658a1.4,1.4,0,0,0,1.342.982,1.385,1.385,0,0,0,1-.424l4.219-4.3Zm-5.68,1.709a.154.154,0,0,1-.146-.111l-2.363-7.611a.8.8,0,0,1,.346-.916l17.607-10.92a.377.377,0,0,1,.211-.064.4.4,0,0,1,.363.27.363.363,0,0,1-.111.414l-14.912,13.188a.781.781,0,0,0-.262.508l-.578,5.1A.153.153,0,0,1,20002.867,18199.348Z" transform="translate(-19984.998 -18163.998)" fill="#61a8de"/>
  </g>
</svg>
