<svg id="gplus_web_signe_apparat_01" xmlns="http://www.w3.org/2000/svg" width="48" height="48" viewBox="0 0 48 48">
  <rect id="container" width="48" height="48" fill="none"/>
  <g id="gplus_web_signe_apparat_01-2" data-name="gplus_web_signe_apparat_01" transform="translate(21454 17031)">
    <rect id="_00" data-name="00" width="48" height="48" rx="3" transform="translate(-21454 -17031)" fill="#fff"/>
    <path id="_01" data-name="01" d="M41.94,52.389a5.518,5.518,0,0,1-1.428-.189l-2.747-.736a16.46,16.46,0,0,0,8.149-3.778,16.654,16.654,0,0,0,2.078-2.139l-.74,2.761a5.507,5.507,0,0,1-5.312,4.08ZM24.757,47.979l-2.716-.728a5.544,5.544,0,0,1-1.042-.4,5.473,5.473,0,0,1-1.686-1.309,5.519,5.519,0,0,1-1.3-2.855,5.475,5.475,0,0,1-.042-1.081,5.544,5.544,0,0,1,.179-1.1l.717-2.677a16.459,16.459,0,0,0,3.768,8.08,16.653,16.653,0,0,0,2.122,2.064Zm26.712-15.4h0a16.459,16.459,0,0,0-3.743-8.124A16.655,16.655,0,0,0,45.6,22.373l2.706.725a5.544,5.544,0,0,1,1.042.4A5.473,5.473,0,0,1,51.039,24.8a5.519,5.519,0,0,1,1.3,2.855,5.475,5.475,0,0,1,.042,1.081,5.543,5.543,0,0,1-.179,1.1ZM22.387,24.7h0L23.1,22.04a5.5,5.5,0,0,1,6.74-3.891l2.666.714A16.463,16.463,0,0,0,24.449,22.6,16.649,16.649,0,0,0,22.387,24.7Z" transform="translate(-21465 -17042)" fill="#231f20"/>
    <path id="_02" data-name="02" d="M15.133,30.267a15.247,15.247,0,0,1-3.05-.307,15.053,15.053,0,0,1-5.411-2.277,15.178,15.178,0,0,1-5.483-6.658,15.058,15.058,0,0,1-.882-2.841,15.282,15.282,0,0,1,0-6.1A15.053,15.053,0,0,1,2.585,6.672,15.177,15.177,0,0,1,9.243,1.189,15.058,15.058,0,0,1,12.083.307a15.282,15.282,0,0,1,6.1,0,15.052,15.052,0,0,1,5.411,2.277,15.176,15.176,0,0,1,5.483,6.658,15.058,15.058,0,0,1,.882,2.841,15.282,15.282,0,0,1,0,6.1,15.052,15.052,0,0,1-2.277,5.411,15.177,15.177,0,0,1-6.658,5.483,15.057,15.057,0,0,1-2.841.882A15.247,15.247,0,0,1,15.133,30.267ZM19.6,17.4a4.382,4.382,0,0,0-2.461.752,4.415,4.415,0,0,0-1.6,1.937,4.4,4.4,0,0,0,.406,4.175,4.415,4.415,0,0,0,1.937,1.6,4.4,4.4,0,0,0,4.175-.406,4.415,4.415,0,0,0,1.6-1.937,4.4,4.4,0,0,0-.406-4.175,4.415,4.415,0,0,0-1.937-1.6A4.375,4.375,0,0,0,19.6,17.4ZM8.667,15.409a4.382,4.382,0,0,0-2.461.752,4.415,4.415,0,0,0-1.6,1.937,4.4,4.4,0,0,0,.406,4.175,4.415,4.415,0,0,0,1.937,1.6,4.4,4.4,0,0,0,4.175-.406,4.415,4.415,0,0,0,1.6-1.937,4.4,4.4,0,0,0-.406-4.175,4.415,4.415,0,0,0-1.937-1.6A4.375,4.375,0,0,0,8.667,15.409Zm6.466-2.2a1.92,1.92,0,1,0,.75.151A1.915,1.915,0,0,0,15.133,13.207ZM21.6,5.985a4.382,4.382,0,0,0-2.461.752,4.415,4.415,0,0,0-1.6,1.937,4.4,4.4,0,0,0,.406,4.175,4.415,4.415,0,0,0,1.937,1.6,4.4,4.4,0,0,0,4.175-.406,4.415,4.415,0,0,0,1.6-1.937,4.4,4.4,0,0,0-.406-4.175,4.415,4.415,0,0,0-1.937-1.6A4.375,4.375,0,0,0,21.6,5.985ZM10.8,4.058a4.382,4.382,0,0,0-2.461.752,4.415,4.415,0,0,0-1.6,1.937,4.4,4.4,0,0,0,.406,4.175,4.415,4.415,0,0,0,1.937,1.6,4.4,4.4,0,0,0,4.175-.406,4.415,4.415,0,0,0,1.6-1.937A4.4,4.4,0,0,0,14.45,6a4.415,4.415,0,0,0-1.937-1.6A4.375,4.375,0,0,0,10.8,4.058Z" transform="translate(-21444.973 -17021.906)" fill="#ed145b"/>
  </g>
</svg>
