<svg xmlns="http://www.w3.org/2000/svg" width="48" height="48.004" viewBox="0 0 48 48.004">
  <g id="gplus_web_signe_android_01" transform="translate(0 0.002)">
    <rect id="container" width="48" height="48" transform="translate(0 0.002)" fill="none"/>
    <path id="gplus_web_signe_android_01-2" data-name="gplus_web_signe_android_01" d="M20700,18829v-5.828h-6V18829a3,3,0,1,1-5.992,0v-5.828a3,3,0,0,1-3.008-3v-18h24v18a3,3,0,0,1-3,3V18829a3,3,0,0,1-6,0Zm12-12v-12a3,3,0,1,1,6,0v12a3,3,0,0,1-6,0Zm-36,0v-12a3,3,0,1,1,6,0v12a3,3,0,0,1-6,0Zm9-18a11.922,11.922,0,0,1,4.469-9.266l-2.641-3.293a1.505,1.505,0,0,1,2.352-1.879l2.836,3.551a11.742,11.742,0,0,1,9.914-.031l2.914-3.539a1.513,1.513,0,0,1,2.117-.2,1.5,1.5,0,0,1,.2,2.113l-2.664,3.238A11.929,11.929,0,0,1,20709,18799Zm13.5-6a1.5,1.5,0,1,0,1.5-1.5A1.5,1.5,0,0,0,20698.5,18793Zm-6,0a1.5,1.5,0,1,0,1.5-1.5A1.5,1.5,0,0,0,20692.5,18793Z" transform="translate(-20673 -18783.998)" fill="#fff"/>
  </g>
</svg>
