<svg id="gplus_logo_final" xmlns="http://www.w3.org/2000/svg" width="250" height="84" viewBox="0 0 250 84">
  <g id="logo">
    <path id="_01" data-name="01" d="M332.808,117.9c-3.775-4.79-43.122-4.323-43.029.28.038,1.861,7.314,2.656,9.371,2.966,6.344.959,23.358.784,29.725-.889,1.4-.369,3.593-.931,3.932-2.356Z" transform="translate(-248.871 -76.57)" fill="#6e6e70" fill-rule="evenodd"/>
    <path id="_02" data-name="02" d="M59.084,28.94c.733-1.019,12.942-10.577,11.845-15.612-3.833-1.384-12.253,6.9-14.905,9.654-3.368,3.49-9.594,12.393-1.947,9.035A27.576,27.576,0,0,0,59.084,28.94Zm7.532,42.733c13.964.523-5.456-27.008-15.85-20.486C44.216,55.294,58.307,71.363,66.615,71.672ZM27.682,67.266c-1.95,8.665,6.549,21.53,15.473,14.521a10.918,10.918,0,0,0,2.623-2.89c3.343-4.841,3.2-11.321.935-16.561-1.9-4.4-6.453-7.529-11.358-5.955A8.406,8.406,0,0,0,31.494,58.9c-1.657,1.877-3.654,5.179-3.812,8.365ZM11.263,30.095c4.278,4.4,12.572,8.485,17.792,3.277,2.873-2.866,3.072-6.325,1.864-10.645a17.774,17.774,0,0,0-10.08-10.557,14.22,14.22,0,0,0-6.095-.867C4.866,12.835,5.39,24.058,11.265,30.1Zm3.277,7.418A14.479,14.479,0,1,1,.01,51.992,14.5,14.5,0,0,1,14.54,37.513Zm26.386-9.855C48.881,31.555,54.791,3.006,44.6.166,36.088-2.2,32.746,23.652,40.926,27.658Z" transform="translate(-0.01 -0.013)" fill="#d7172f" fill-rule="evenodd"/>
  </g>
  <path id="type" d="M433.093,101.946c.01,3.371.407,29.366-.371,31.244a7.784,7.784,0,0,1-3.222,3.121c-1.3.65-9.7,1.037-10.675-.465a4.884,4.884,0,0,1-2.846-3.164c-.666-1.387-.279-16.169-.3-19.023l-4.555-.009c-.012,2.591.35,17.9-.281,18.815-.2,1.808-1.71,2.485-3.13,3.737-1.967,1.084-16.285.553-19.129.583l.011,4.486c0,.04,18.113.143,20.559-.652,2.31-.749,2.766-1.581,4.248-2.9,1.651,1.47,1.878,2.122,4.473,2.97a25.72,25.72,0,0,0,13.278-.04c2.824-.914,3.613-2.54,4.5-3.221,2.391,2.969,5.439,3.752,10.272,3.743,5.992-.011,15.8,1.158,19.56-1.9a9.829,9.829,0,0,0,3.711-6.452c.349-2.244.214-10.429-.645-12.712a9.924,9.924,0,0,0-7.685-6.324c-3.571-.414-13.783-.165-16.368-.13l.006,4.676c2.483.034,13.466-.579,16.079.262a6.169,6.169,0,0,1,4,4.683c.345,1.054.3,7.731.017,9.267-.638,3.432-3,3.966-5.549,3.946-3.137-.023-6.281,0-9.418,0-3.026,0-6.908.445-8.678-.76a6.47,6.47,0,0,1-3.312-6.256l-.008-28.7h-4.568l.015,1.175ZM390,130.155h.068a2.976,2.976,0,0,0,3.2-.445l.143-.051c.039-.063.076-.127.111-.193a3.142,3.142,0,0,0,.838-2.147,3.035,3.035,0,1,0-6.069,0,3.119,3.119,0,0,0,1.668,2.779l.044.057Zm-47.621-1.28c.994-2.913-1.635-5.112-3.708-4.1a3.045,3.045,0,0,0-.011,5.57A2.981,2.981,0,0,0,342.377,128.875ZM444.507,105.6l22.532.155.005-4.684-21.4-.011-1.14.023V105.6Zm17.69,6.6,4.844-.009,0-.289v-4.4l-22.693-.01.164,4.686,17.68.017Zm-98.73,20.191,4.569.006V100.773l-4.552,0Zm-33.4,8.788c3.779.1,18.061.165,20.349-.145,2.192-.637,5.784-1.965,6.762-4.246a8.223,8.223,0,0,0,2.084-5.7l.067-17.408-4.7-.007c-.018,3.8,0,7.6,0,11.4,0,4.4.673,7.024-1.628,9.455a6.087,6.087,0,0,1-3.5,1.969l-16.279-.007c-2.46,0-6.012.362-7.784-3.438-.678-1.454-.695-8.551-.163-10.274a6.226,6.226,0,0,1,.958-1.948c1.519-2.187,3.1-2.514,5.559-2.5,3.61.023,7.224.007,10.846.006l0-4.676c-3.95-.06-10.455-.351-14.376.135-7.655.937-8.844,13.1-7.787,19.1a10.327,10.327,0,0,0,9.6,8.276Zm68.51-16.971a3.114,3.114,0,1,1-3.034,3.113A3.074,3.074,0,0,1,398.581,124.2Zm-37.394,17.259c4.434.024,11.178.62,14.746-1.256,8.74-4.6,3.411-13.513,5.868-17.984,1.006-1.831,2.007-3.435,4.256-3.827,3.215-.56,11.951-.03,15.779-.06l-.146-4.666c-5.016-.133-10.68-.17-15.7-.027-3.854.11-7.63,3.638-8.662,7.214-1.619,5.611,1.359,10.258-2.171,13.863-1.849,1.887-2.534,2.082-5.985,2.066-2.656-.011-5.335-.029-7.99,0v4.678Z" transform="translate(-219.383 -85.146)" fill="#6e6e70" fill-rule="evenodd"/>
  <path id="slogan" d="M19.578-.01h7.255a.237.237,0,0,1,.234.236v.3a.237.237,0,0,1-.234.236H26.8a.233.233,0,0,1-.226.186H19.39a.233.233,0,0,1-.231-.232v-.3a.235.235,0,0,1,.188-.229.237.237,0,0,1,.23-.2Zm2.556,16.533.2-.012a3.309,3.309,0,0,0,2.149-.966,3.353,3.353,0,0,0,0-4.718l-.3-.3H24.18L19.455,5.665a1.06,1.06,0,0,1,0-1.484,1.048,1.048,0,0,1,.636-.3l.02,0h6.143a.553.553,0,0,0,.549-.551V2.14a.553.553,0,0,0-.549-.551h-6.17a3.332,3.332,0,0,0-2.24.976,3.368,3.368,0,0,0,0,4.721l5.059,5.2.007.007a1.051,1.051,0,0,1-.615,1.734l-.031.005-1.934,0,0,.015H19.187L14.059,9.1a3.211,3.211,0,0,0-4.534,4.547l2.668,2.676.008.01a1.034,1.034,0,0,1-.043,1.41,1.018,1.018,0,0,1-.558.287l-.031,0-7.123-.011a2.153,2.153,0,0,1-1.331-.462,2.221,2.221,0,0,1-.849-1.742v-5.4a.643.643,0,0,0-.639-.642H.619a.643.643,0,0,0-.639.642v5.414c0,.027,0,.054,0,.082a4.342,4.342,0,0,0,.9,2.572,4.4,4.4,0,0,0,3.3,1.738c.39.007.785,0,1.175,0H7.79l3.622,0h.023l.193-.012a3.187,3.187,0,0,0,2.072-.931,3.234,3.234,0,0,0,0-4.547l-.285-.286h0L11.066,12.1a1.029,1.029,0,1,1,1.453-1.457l4.153,4.163.014.018a4.5,4.5,0,0,0,3.087,1.686l.119.011h.035c.091.006.182.008.274.008h1.368v-.008h.566Zm107.4-1v-.112a4.334,4.334,0,0,0-4.312-4.275h-3.281a1.03,1.03,0,0,1-.23-2.033l.054-.012.053,0c.077,0,.155.006.233.006h5.233a.613.613,0,0,0,.61-.612v-.98a.614.614,0,0,0-.609-.612h-3.973V6.894h-1.369a3.215,3.215,0,0,0,0,6.431l2.8-.011h.487a2.147,2.147,0,0,1,0,4.293h-4.281a.584.584,0,0,0-.174.026l-.056.017-2.817,0a2.154,2.154,0,0,1-1.332-.461,2.223,2.223,0,0,1-.849-1.742V9.409a.643.643,0,0,0-.639-.641h-1.007a.642.642,0,0,0-.638.641v6.047c0,.027,0,.054,0,.082a4.344,4.344,0,0,0,.9,2.572,4.4,4.4,0,0,0,3.3,1.737c.389.007.783,0,1.173,0l2.438,0,3.623,0h.022l.193-.012a3.083,3.083,0,0,0,.515-.073l.023,0,.024,0a4.339,4.339,0,0,0,3.894-4.143l0-.091ZM39.475,3.774a.644.644,0,0,0-.639.642V5.424a.643.643,0,0,0,.639.642h1.006a.643.643,0,0,0,.64-.642V4.416a.644.644,0,0,0-.64-.642Zm10.346,0a.644.644,0,0,0-.639.642V5.424a.643.643,0,0,0,.639.642h1.005a.644.644,0,0,0,.641-.642V4.416a.645.645,0,0,0-.641-.642Zm23.3,0a.644.644,0,0,0-.638.642V5.424a.643.643,0,0,0,.638.642h1.006a.643.643,0,0,0,.639-.642V4.416a.643.643,0,0,0-.639-.642Zm3.859,0a.643.643,0,0,0-.639.642V5.424a.643.643,0,0,0,.639.642h1.006a.643.643,0,0,0,.639-.642V4.416a.644.644,0,0,0-.639-.642Zm3.859,0a.644.644,0,0,0-.639.642V5.424a.643.643,0,0,0,.639.642h1.006a.644.644,0,0,0,.639-.642V4.416a.644.644,0,0,0-.639-.642Zm21.356,0a.644.644,0,0,0-.64.642V5.424a.644.644,0,0,0,.64.642H103.2a.643.643,0,0,0,.64-.642V4.416a.645.645,0,0,0-.64-.642ZM70.924,12.05h-.018V8.529a.644.644,0,0,0-.64-.641H69.26a.643.643,0,0,0-.639.641v7.442L68.616,16a1.975,1.975,0,0,1-2.135,1.806H60.233a2.2,2.2,0,0,1-2.182-2.188v-6.1a.643.643,0,0,0-.639-.642H56.406a.643.643,0,0,0-.638.642v6.1A4.486,4.486,0,0,0,60.233,20.1h6.234a4.486,4.486,0,0,0,4.386-3.644l.091-.471.441.186a4.437,4.437,0,0,0,1.734.351h1.005a4.474,4.474,0,0,0,3.089-1.241l.266-.253.268.253a4.474,4.474,0,0,0,3.09,1.241h1.005a4.519,4.519,0,0,0,4.5-4.512V8.529a.643.643,0,0,0-.639-.641H84.7a.643.643,0,0,0-.64.641v3.483a2.231,2.231,0,0,1-2.214,2.221H80.837a2.232,2.232,0,0,1-2.215-2.221V8.529a.644.644,0,0,0-.639-.641H76.978a.643.643,0,0,0-.639.641v3.483a2.232,2.232,0,0,1-2.214,2.221H73.119a2.232,2.232,0,0,1-2.193-1.915l0-.027V12.05Zm30.385,4.173h6.565l.192-.011a3.19,3.19,0,0,0,2.074-.932,3.237,3.237,0,0,0,0-4.552l-.286-.287,0,0-.826-.849h0l-.813-.817a3.19,3.19,0,0,0-2.285-.936l-.389,0v0h-3.519a.467.467,0,0,0-.464.465V9.553a.468.468,0,0,0,.464.466h4.229v.045a1.022,1.022,0,0,1,.424.256l.948.95,1.016,1.044.006.007a1.033,1.033,0,0,1-.044,1.411,1.017,1.017,0,0,1-.558.287l-.031.006-6.7,0h-.889a2.178,2.178,0,0,1-2.152-1.965v-.541a.18.18,0,0,0,0-.022V11.48c0-.016,0-.031,0-.047l0-.023V11.3l0-.1A4.521,4.521,0,0,0,93.8,6.868v0h-.624a4.521,4.521,0,0,0-4.5,4.459v.117l0,.095a4.522,4.522,0,0,0,4.5,4.342h2.859l-.222.537A2.229,2.229,0,0,1,93.768,17.8H89.425a.656.656,0,0,0-.647.657v1.027a.657.657,0,0,0,.23.5.416.416,0,0,0,.347.115v-.006h4.414a4.52,4.52,0,0,0,4.455-3.9l.07-.5.464.194a4.3,4.3,0,0,0,1.663.334h.889ZM90.963,11.378a2.229,2.229,0,0,1,2.214-2.215h.714a2.233,2.233,0,0,1,2.083,2.216v.4a.629.629,0,0,0,0,.074l0,.024v1.721H93.178a2.229,2.229,0,0,1-2.214-2.216ZM132.59,20.1v-.006H137a4.521,4.521,0,0,0,4.5-4.512V11.514c0-.007,0-.015,0-.022V11.48c0-.016,0-.031-.005-.047l0-.023v-.031a4.52,4.52,0,0,0-4.457-4.511v0h-.623a4.52,4.52,0,0,0-4.5,4.459v.117l0,.095a4.519,4.519,0,0,0,4.5,4.342h2.858l-.222.537A2.23,2.23,0,0,1,137,17.8h-4.341a.657.657,0,0,0-.65.657v1.027a.657.657,0,0,0,.23.5.416.416,0,0,0,.347.115Zm1.61-8.722a2.23,2.23,0,0,1,2.215-2.215h.715a2.23,2.23,0,0,1,2.081,2.216v.4a.585.585,0,0,0,.006.074l0,.024v1.721h-2.8a2.23,2.23,0,0,1-2.216-2.216Zm9.17,8.722v-.006h1.469a4.52,4.52,0,0,0,4.5-4.512V8.5a.643.643,0,0,0-.639-.641h-1.005a.643.643,0,0,0-.64.641v7.08a2.231,2.231,0,0,1-2.215,2.222h-1.4a.658.658,0,0,0-.65.657v1.027a.655.655,0,0,0,.231.5.414.414,0,0,0,.346.115ZM45.5,20.1v-.006h1.469a4.521,4.521,0,0,0,4.5-4.512V8.529a.645.645,0,0,0-.641-.641H49.821a.643.643,0,0,0-.639.641v7.052A2.232,2.232,0,0,1,46.967,17.8h-1.4a.657.657,0,0,0-.649.657v1.027a.658.658,0,0,0,.23.5.414.414,0,0,0,.346.115ZM35.171,10.527h-.005L31.82,7.083a.654.654,0,0,0-.921,0L30.18,7.8a.655.655,0,0,0-.188.513.376.376,0,0,0,.1.258L33.9,12.483l.006.007a1.057,1.057,0,0,1-.044,1.44,1.044,1.044,0,0,1-.57.293l-.031.005-4.327,0h-.91a.658.658,0,0,0-.649.658v1.025a.659.659,0,0,0,.23.5c.16.137.226.109.433.116h5.088l.2-.012a3.307,3.307,0,0,0,2.035-.857l.236-.215.256.192a4.46,4.46,0,0,0,2.678.893h2.86a4.52,4.52,0,0,0,4.5-4.512V8.529a.644.644,0,0,0-.639-.641H44.24a.643.643,0,0,0-.64.641v3.483a2.231,2.231,0,0,1-2.214,2.221h-2.86a2.23,2.23,0,0,1-2.145-1.677l0-.011,0-.011a3.317,3.317,0,0,0-.907-1.707l-.3-.3Z" transform="translate(100.664 63.77)" fill="#6e6e70" fill-rule="evenodd"/>
</svg>
