<svg id="gplus_web_signe_linkdin_01" xmlns="http://www.w3.org/2000/svg" width="48" height="48" viewBox="0 0 48 48">
  <rect id="container" width="48" height="48" fill="none"/>
  <path id="gplus_web_signe_linkdin_01-2" data-name="gplus_web_signe_linkdin_01" d="M44.538,0H3.462A3.462,3.462,0,0,0,0,3.462V44.538A3.462,3.462,0,0,0,3.462,48H44.538A3.462,3.462,0,0,0,48,44.538V3.462A3.462,3.462,0,0,0,44.538,0ZM17.026,36.281H11.181V18.7h5.845ZM14.1,16.295h-.038a3.046,3.046,0,1,1,.077-6.076,3.048,3.048,0,1,1-.039,6.076Zm24,19.986H32.258V26.874c0-2.364-.846-3.977-2.961-3.977a3.2,3.2,0,0,0-3,2.138,4,4,0,0,0-.192,1.426v9.82H20.261s.077-15.935,0-17.585h5.845v2.49a5.8,5.8,0,0,1,5.268-2.9c3.846,0,6.729,2.513,6.729,7.915Zm0,0" fill="#1177b7"/>
</svg>
