<svg id="gplus_web_signe_twitter_01" xmlns="http://www.w3.org/2000/svg" width="48" height="48" viewBox="0 0 48 48">
  <rect id="container" width="48" height="48" fill="none"/>
  <path id="gplus_web_signe_twitter_01-2" data-name="gplus_web_signe_twitter_01" d="M44.538,0H3.462A3.462,3.462,0,0,0,0,3.462V44.538A3.462,3.462,0,0,0,3.462,48H44.538A3.462,3.462,0,0,0,48,44.538V3.462A3.462,3.462,0,0,0,44.538,0Zm-9.58,18.713q.016.354.016.712A15.567,15.567,0,0,1,19.3,35.1h0a15.593,15.593,0,0,1-8.444-2.474,11.2,11.2,0,0,0,1.314.076,11.053,11.053,0,0,0,6.842-2.358,5.515,5.515,0,0,1-5.146-3.826,5.49,5.49,0,0,0,2.488-.094,5.51,5.51,0,0,1-4.419-5.4c0-.025,0-.047,0-.07a5.471,5.471,0,0,0,2.495.689,5.513,5.513,0,0,1-1.705-7.354A15.64,15.64,0,0,0,24.08,20.041a5.512,5.512,0,0,1,9.387-5.024,11.049,11.049,0,0,0,3.5-1.337,5.53,5.53,0,0,1-2.422,3.047,10.986,10.986,0,0,0,3.163-.868A11.2,11.2,0,0,1,34.958,18.713Zm0,0" fill="#1ca9f4"/>
</svg>
