<svg xmlns="http://www.w3.org/2000/svg" width="190" height="64" viewBox="0 0 190 64"><g transform="translate(-1146 -535)"><g transform="translate(1146 535)"><path d="M322.481,117.09c-2.869-3.65-32.773-3.294-32.7.213.029,1.418,5.559,2.024,7.122,2.26,4.822.731,17.752.6,22.591-.677,1.068-.281,2.731-.71,2.988-1.8Z" transform="translate(-258.689 -85.603)" fill="#fff" fill-rule="evenodd"/><path d="M44.906,22.053c.557-.776,9.836-8.058,9-11.895C50.995,9.1,44.6,15.419,42.58,17.513c-2.56,2.659-7.292,9.442-1.48,6.884A20.948,20.948,0,0,0,44.906,22.053ZM50.63,54.611c10.612.4-4.147-20.578-12.046-15.609C33.607,42.132,44.316,54.375,50.63,54.611ZM21.041,51.254c-1.482,6.6,4.977,16.4,11.759,11.064a8.311,8.311,0,0,0,1.994-2.2c2.541-3.688,2.43-8.625.71-12.618-1.445-3.355-4.9-5.737-8.632-4.537a6.387,6.387,0,0,0-2.934,1.921,11.514,11.514,0,0,0-2.9,6.373ZM8.562,22.933c3.251,3.35,9.554,6.465,13.522,2.5,2.183-2.183,2.335-4.819,1.416-8.111A13.527,13.527,0,0,0,15.84,9.275a10.782,10.782,0,0,0-4.632-.66C3.7,9.782,4.1,18.333,8.563,22.934Zm2.49,5.652A11.032,11.032,0,1,1,.01,39.617,11.037,11.037,0,0,1,11.053,28.585Zm20.053-7.509C37.152,24.045,41.643,2.294,33.9.13,27.429-1.674,24.889,18.024,31.106,21.076Z" transform="translate(-0.01 -0.013)" fill="#fff" fill-rule="evenodd"/><path d="M405.984,101.666c.007,2.568.31,22.374-.282,23.8a5.923,5.923,0,0,1-2.449,2.378c-.99.5-7.368.79-8.113-.354a3.718,3.718,0,0,1-2.163-2.411c-.506-1.057-.212-12.319-.225-14.494l-3.462-.007c-.009,1.974.266,13.64-.213,14.335-.154,1.378-1.3,1.894-2.379,2.848-1.495.826-12.377.422-14.538.444l.008,3.418c0,.03,13.766.109,15.625-.5,1.756-.57,2.1-1.2,3.228-2.211,1.255,1.12,1.427,1.617,3.4,2.263a19.5,19.5,0,0,0,10.092-.03c2.147-.7,2.746-1.935,3.424-2.454,1.817,2.262,4.134,2.858,7.807,2.852,4.554-.009,12.011.882,14.866-1.446a7.493,7.493,0,0,0,2.82-4.916c.265-1.71.163-7.946-.49-9.685a7.546,7.546,0,0,0-5.841-4.818c-2.714-.315-10.475-.126-12.44-.1l0,3.562c1.887.026,10.234-.441,12.22.2a4.7,4.7,0,0,1,3.041,3.568,34.722,34.722,0,0,1,.013,7.061c-.485,2.615-2.282,3.021-4.217,3.006-2.384-.017-4.774,0-7.158,0-2.3,0-5.25.339-6.595-.579a4.933,4.933,0,0,1-2.517-4.766l-.006-21.865h-3.471l.012.9Zm-32.752,21.493h.052a2.257,2.257,0,0,0,2.429-.339l.109-.039c.03-.048.058-.1.085-.147a2.4,2.4,0,0,0,.637-1.636,2.307,2.307,0,1,0-4.612,0,2.377,2.377,0,0,0,1.268,2.117l.034.043Zm-36.192-.976c.755-2.22-1.242-3.895-2.818-3.122a2.322,2.322,0,0,0-.008,4.244A2.264,2.264,0,0,0,337.04,122.183Zm77.618-17.736,17.124.118,0-3.569-16.261-.009-.866.017v3.443Zm13.445,5.027,3.682-.007,0-.221V105.9l-17.246-.008.125,3.57,13.437.013Zm-75.035,15.384,3.472,0v-24.09l-3.46,0Zm-25.382,6.7c2.872.075,13.727.126,15.465-.111,1.666-.486,4.4-1.5,5.139-3.235a6.274,6.274,0,0,0,1.584-4.341l.051-13.263-3.574-.005c-.014,2.9,0,5.793,0,8.688,0,3.353.511,5.352-1.237,7.2a4.623,4.623,0,0,1-2.658,1.5l-12.372-.005c-1.87,0-4.569.276-5.916-2.619-.516-1.108-.528-6.515-.124-7.828a4.748,4.748,0,0,1,.728-1.484c1.155-1.667,2.355-1.915,4.224-1.9,2.743.017,5.49.005,8.243,0l0-3.562a95.678,95.678,0,0,0-10.926.1c-5.818.714-6.722,9.983-5.918,14.555a7.854,7.854,0,0,0,7.3,6.306Zm52.068-12.931a2.373,2.373,0,1,1-2.306,2.372A2.339,2.339,0,0,1,379.755,118.623Zm-28.42,13.15c3.37.018,8.5.473,11.207-.957,6.642-3.506,2.592-10.3,4.46-13.7.765-1.395,1.525-2.617,3.235-2.916,2.443-.427,9.083-.023,11.992-.046l-.111-3.555c-3.812-.1-8.117-.129-11.93-.021-2.929.084-5.8,2.771-6.583,5.5-1.231,4.275,1.033,7.816-1.65,10.562-1.4,1.437-1.926,1.586-4.549,1.574-2.019-.009-4.054-.022-6.072,0v3.565Z" transform="translate(-243.564 -88.866)" fill="#fff" fill-rule="evenodd"/><path d="M14.874-.01h5.514a.18.18,0,0,1,.178.18V.4a.18.18,0,0,1-.178.18h-.024a.177.177,0,0,1-.172.142H14.732a.177.177,0,0,1-.175-.177V.316A.179.179,0,0,1,14.7.141a.18.18,0,0,1,.175-.151Zm1.943,12.6.151-.009a2.512,2.512,0,0,0,1.633-.736,2.559,2.559,0,0,0,0-3.595l-.226-.228h0L14.781,4.314a.809.809,0,0,1,0-1.131.8.8,0,0,1,.483-.23l.015,0h4.669a.421.421,0,0,0,.418-.42v-.9a.421.421,0,0,0-.418-.42H15.262a2.529,2.529,0,0,0-1.7.744,2.571,2.571,0,0,0,0,3.6l3.845,3.959.005.005a.806.806,0,0,1-.034,1.1.8.8,0,0,1-.434.224l-.023,0-1.47,0v.012h-.873L10.68,6.93a2.435,2.435,0,0,0-3.446,0,2.467,2.467,0,0,0,0,3.464l2.028,2.039.006.008a.789.789,0,0,1-.033,1.074.773.773,0,0,1-.424.219l-.024,0-5.414-.009a1.634,1.634,0,0,1-1.012-.352,1.694,1.694,0,0,1-.645-1.327V7.936a.489.489,0,0,0-.486-.489H.466a.49.49,0,0,0-.486.489v4.125c0,.021,0,.041,0,.063a3.314,3.314,0,0,0,.684,1.959,3.343,3.343,0,0,0,2.5,1.324c.3,0,.6,0,.893,0H8.686l.147-.009a2.42,2.42,0,0,0,1.575-.709,2.468,2.468,0,0,0,0-3.465l-.217-.218h0L8.405,9.218a.79.79,0,0,1,0-1.11.778.778,0,0,1,1.1,0l3.156,3.172.01.013a3.419,3.419,0,0,0,2.346,1.285l.09.008h.027c.069,0,.138.006.208.006h1.04v-.006h.43Zm81.627-.759v-.086a3.3,3.3,0,0,0-3.277-3.257H92.674A.785.785,0,0,1,92.5,6.936l.041-.009.04,0c.059,0,.118,0,.177,0h3.977a.467.467,0,0,0,.464-.466V5.721a.467.467,0,0,0-.463-.466h-3.02v0H92.674a2.45,2.45,0,0,0,0,4.9l2.124-.009h.37a1.635,1.635,0,0,1,0,3.271H91.913a.443.443,0,0,0-.132.02l-.043.013-2.141,0a1.635,1.635,0,0,1-1.012-.352,1.7,1.7,0,0,1-.645-1.327v-4.6a.489.489,0,0,0-.486-.488h-.765a.488.488,0,0,0-.485.488v4.608c0,.021,0,.041,0,.062a3.364,3.364,0,0,0,3.19,3.283c.3.006.6,0,.892,0H94.91l.147-.009a2.337,2.337,0,0,0,.391-.055l.017,0,.018,0A3.3,3.3,0,0,0,98.443,11.9l0-.069ZM30,2.873a.49.49,0,0,0-.485.489V4.13A.489.489,0,0,0,30,4.619h.765a.49.49,0,0,0,.486-.489V3.362a.49.49,0,0,0-.486-.489Zm7.863,0a.49.49,0,0,0-.485.489V4.13a.489.489,0,0,0,.485.489h.764a.49.49,0,0,0,.487-.489V3.362a.491.491,0,0,0-.487-.489Zm17.707,0a.49.49,0,0,0-.485.489V4.13a.489.489,0,0,0,.485.489h.764a.489.489,0,0,0,.485-.489V3.362a.49.49,0,0,0-.485-.489Zm2.933,0a.49.49,0,0,0-.485.489V4.13a.489.489,0,0,0,.485.489h.764a.489.489,0,0,0,.485-.489V3.362a.49.49,0,0,0-.485-.489Zm2.933,0a.49.49,0,0,0-.486.489V4.13a.489.489,0,0,0,.486.489H62.2a.49.49,0,0,0,.485-.489V3.362a.49.49,0,0,0-.485-.489Zm16.23,0a.49.49,0,0,0-.486.489V4.13a.49.49,0,0,0,.486.489h.764a.489.489,0,0,0,.486-.489V3.362a.491.491,0,0,0-.486-.489ZM53.9,9.179h-.014V6.5a.49.49,0,0,0-.486-.489h-.764a.489.489,0,0,0-.485.489v5.67l0,.025a1.5,1.5,0,0,1-1.623,1.376H45.772A1.672,1.672,0,0,1,44.114,11.9V7.256a.49.49,0,0,0-.485-.489h-.765a.489.489,0,0,0-.485.489V11.9a3.414,3.414,0,0,0,3.394,3.413h4.738a3.412,3.412,0,0,0,3.334-2.776l.069-.359.335.142a3.365,3.365,0,0,0,1.318.268h.764a3.4,3.4,0,0,0,2.348-.946l.2-.193.2.193a3.4,3.4,0,0,0,2.348.946H62.2A3.439,3.439,0,0,0,65.614,9.15V6.5a.489.489,0,0,0-.485-.489h-.764a.49.49,0,0,0-.486.489V9.15A1.7,1.7,0,0,1,62.2,10.842h-.764A1.7,1.7,0,0,1,59.748,9.15V6.5a.49.49,0,0,0-.485-.489H58.5a.489.489,0,0,0-.485.489V9.15a1.7,1.7,0,0,1-1.683,1.692h-.764A1.7,1.7,0,0,1,53.9,9.383l0-.02V9.179Zm23.093,3.18h4.989l.146-.009a2.422,2.422,0,0,0,1.576-.71,2.47,2.47,0,0,0,0-3.468l-.217-.218h0L82.853,7.3h0l-.618-.622A2.421,2.421,0,0,0,80.5,5.969h-.3v0H77.529a.355.355,0,0,0-.353.354v.953a.356.356,0,0,0,.353.355h3.214v.034a.776.776,0,0,1,.322.195l.72.724.772.8,0,.006a.789.789,0,0,1-.034,1.075.772.772,0,0,1-.424.219l-.024,0-5.09,0h-.675a1.657,1.657,0,0,1-1.635-1.5V8.77a.137.137,0,0,0,0-.017V8.744c0-.012,0-.024,0-.036l0-.018V8.6l0-.076a3.44,3.44,0,0,0-3.384-3.3v0H70.81a3.44,3.44,0,0,0-3.419,3.4V8.72l0,.072A3.441,3.441,0,0,0,70.81,12.1h2.173l-.168.409a1.694,1.694,0,0,1-1.556,1.052h-3.3a.5.5,0,0,0-.492.5v.782a.5.5,0,0,0,.174.38.315.315,0,0,0,.263.088v0h3.355a3.438,3.438,0,0,0,3.386-2.97l.053-.38.353.148a3.261,3.261,0,0,0,1.264.254h.675ZM69.127,8.666A1.7,1.7,0,0,1,70.81,6.979h.542a1.7,1.7,0,0,1,1.583,1.689v.3a.482.482,0,0,0,0,.056l0,.018v1.311H70.81a1.7,1.7,0,0,1-1.683-1.689Zm31.636,6.645v0h3.355a3.44,3.44,0,0,0,3.419-3.438V8.77c0-.006,0-.011,0-.017V8.744c0-.012,0-.024,0-.036l0-.018V8.667a3.44,3.44,0,0,0-3.387-3.437v0h-.473a3.44,3.44,0,0,0-3.419,3.4V8.72l0,.072A3.438,3.438,0,0,0,103.67,12.1h2.172l-.168.409a1.694,1.694,0,0,1-1.556,1.052h-3.3a.5.5,0,0,0-.494.5v.782a.5.5,0,0,0,.175.38.316.316,0,0,0,.263.088Zm1.223-6.645a1.7,1.7,0,0,1,1.683-1.688h.543a1.7,1.7,0,0,1,1.581,1.689v.3a.447.447,0,0,0,0,.056l0,.018v1.311H103.67a1.7,1.7,0,0,1-1.684-1.689Zm6.969,6.645v0h1.116a3.44,3.44,0,0,0,3.419-3.438V6.475a.489.489,0,0,0-.485-.488h-.764a.489.489,0,0,0-.486.488v5.394a1.7,1.7,0,0,1-1.683,1.693H109.01a.5.5,0,0,0-.494.5v.782a.5.5,0,0,0,.176.38.314.314,0,0,0,.263.088Zm-74.382,0v0H35.69a3.44,3.44,0,0,0,3.42-3.438V6.5a.491.491,0,0,0-.487-.489h-.764a.489.489,0,0,0-.485.489v5.373a1.7,1.7,0,0,1-1.684,1.693H34.628a.5.5,0,0,0-.493.5v.782a.5.5,0,0,0,.175.38.314.314,0,0,0,.263.088ZM26.725,8.019h0L24.179,5.394a.5.5,0,0,0-.7,0l-.547.55a.5.5,0,0,0-.143.39.287.287,0,0,0,.076.2l2.892,2.978,0,.005a.807.807,0,0,1-.034,1.1.793.793,0,0,1-.433.224l-.023,0-3.288,0h-.692a.5.5,0,0,0-.493.5v.781a.5.5,0,0,0,.175.38c.122.1.172.083.329.088h3.867l.151-.009a2.51,2.51,0,0,0,1.547-.653l.179-.164.194.146a3.384,3.384,0,0,0,2.036.68h2.173A3.439,3.439,0,0,0,34.868,9.15V6.5a.49.49,0,0,0-.486-.489h-.764a.49.49,0,0,0-.486.489V9.15a1.7,1.7,0,0,1-1.683,1.692H29.275a1.7,1.7,0,0,1-1.63-1.277l0-.008V9.548a2.529,2.529,0,0,0-.69-1.3l-.227-.229Z" transform="translate(76.509 48.589)" fill="#fff" fill-rule="evenodd"/></g></g></svg>