<?xml version="1.0" standalone="no"?>
<!DOCTYPE svg PUBLIC "-//W3C//DTD SVG 20010904//EN"
 "http://www.w3.org/TR/2001/REC-SVG-20010904/DTD/svg10.dtd">
<svg version="1.0" xmlns="http://www.w3.org/2000/svg"
 width="140.000000pt" height="140.000000pt" viewBox="0 0 140.000000 140.000000"
 preserveAspectRatio="xMidYMid meet">
<metadata>
Created by potrace 1.14, written by Peter Selinger 2001-2017
</metadata>
<g transform="translate(0.000000,140.000000) scale(0.100000,-0.100000)"
fill="#000000" stroke="none">
<path d="M665 1355 c-47 -49 -69 -122 -70 -225 0 -129 34 -200 97 -202 72 -2
132 121 131 267 -2 164 -80 243 -158 160z"/>
<path d="M227 1200 c-140 -25 -162 -194 -42 -315 76 -75 195 -106 265 -67 76
42 95 138 45 230 -27 50 -73 100 -111 120 -43 22 -120 38 -157 32z"/>
<path d="M1127 1165 c-137 -47 -376 -331 -267 -317 27 4 112 56 162 100 108
94 182 206 150 225 -4 3 -24 -1 -45 -8z"/>
<path d="M920 765 c0 -6 -10 -11 -22 -11 -110 -3 -231 -35 -221 -60 5 -13 62
-34 108 -40 156 -19 401 -19 495 1 14 3 40 8 58 11 18 4 37 15 43 25 8 16 5
21 -18 30 -28 11 -54 17 -104 23 -14 1 -30 5 -35 7 -5 3 -72 5 -149 5 -82 -1
-143 3 -147 9 -5 7 -8 6 -8 0z"/>
<path d="M172 741 c-100 -26 -175 -133 -168 -241 9 -125 104 -214 231 -214
199 0 303 233 172 386 -49 57 -157 89 -235 69z"/>
<path d="M847 543 c-15 -7 -27 -17 -28 -21 0 -4 -3 -20 -5 -36 -13 -75 101
-221 211 -272 78 -37 125 -32 150 16 13 25 13 34 0 78 -42 142 -239 282 -328
235z"/>
<path d="M592 458 c-130 -35 -189 -264 -100 -390 72 -104 210 -83 273 43 62
121 26 288 -71 334 -46 22 -63 24 -102 13z"/>
</g>
</svg>
